<?xml version="1.0" encoding="utf-8"?>
<svg aria-hidden="true" style="position: absolute; width: 0; height: 0; overflow: hidden;" version="1.1" xmlns="http://www.w3.org/2000/svg" xmlns:xlink="http://www.w3.org/1999/xlink">
<defs>
<symbol id="logo" viewBox="130 201 612 350" preserveAspectRatio="xMinYMin meet">
	<path id="XMLID_4_" d="M187.4,314.8c0.8-6.5,1.7-12.5,2.7-18.1c0.3-2.3,0.6-4.5,1-6.8c0.4-2.3,0.9-4.4,1.5-6.6
		c1.4-4.2,2.8-8.4,4.4-12.4c1.6-4.1,3.7-8,6.2-11.8c2.4-3.8,5-6.6,7.9-8.6c3.6-2.9,7.5-3.8,11.5-2.7c2.4,0.5,4.5,1.2,6.3,2.3
		c2.3,1.2,3.8,3,4.5,5.4c2.1,6.9,3,12.6,2.7,17c-0.2,1.4-0.1,2.5,0.2,3.4c0.3,1.7-0.2,4.4-1.4,8.1c-0.5,1.4-1.1,2.2-2,2.5
		c-1.4,0.8-2.5,0.8-3.4,0.2c-1.1-0.8-1.3-1.7-0.7-2.9c0.8-2.4,1.1-4.9,1-7.3c-0.1-2.5,0-4.9,0.1-7.3c0.1-3.8-0.6-8.1-2.3-13.1
		c-0.9-2.1-2.4-2.9-4.5-2.3c-5.4,1.5-9.2,4.4-11.3,8.8c-1.5,3.2-3,6.3-4.5,9.3c-1.5,3-2.7,6.2-3.6,9.5c-0.5,1.5-1,3.1-1.6,4.7
		c-1.4,3-2.3,6.9-2.7,11.5c-0.3,2.6-0.7,5.2-1.2,7.9c-0.5,2.7-1,5.4-1.5,7.9c-0.5,4.2-0.7,7-0.7,8.4c0,3,0,6,0.1,8.9
		c0.1,2.9,0.2,5.8,0.3,8.7c0.5,7.8,2.6,15,6.6,21.5c0.5,0.9,1.4,2.2,2.7,3.8c2.6,3.8,6.9,6,13.1,6.8c1.4,0.3,2.8,0.2,4.3-0.5
		c2.9-1.2,5.6-2.6,8.3-4.1c2.6-1.5,5-3.5,7.1-6.1c3.8-5,6.8-10,9-15.1c1.1-2.7,1.9-5.1,2.6-7.2c0.7-2.1,1.5-4.6,2.4-7.5
		c1.1-2,2.2-2.5,3.5-1.7c1.3,0.8,1.8,1.8,1.5,3.1c-1.2,4.4-2.5,8.8-3.8,13.3c-1.5,5.4-4.7,11.3-9.7,17.6c-3.8,4.8-9.3,8.9-16.7,12.2
		c-1.7,0.6-3.7,0.9-6.1,0.9c-4.4-0.2-8.9-1-13.6-2.5c-2.9-0.8-5.7-2.8-8.6-6.1c-3.8-4.1-6.7-9.3-8.8-15.8c-2-5.9-2.9-12.3-2.9-19.2
		c0-3,0-6,0-9C187.4,320.8,187.4,317.8,187.4,314.8z"/>
	<path id="XMLID_6_" d="M278,339.8c0-1.8,0-3.5-0.1-5.2c-0.1-1.7,0-3.4,0.1-5.2l0.2-3.4c0-2,0.1-3.4,0.2-4.3c0-0.3-0.1-0.5-0.2-0.5
		c-0.5,0-0.7,0.1-0.7,0.2c-0.6,0.9-1.1,1.8-1.6,2.7c-0.5,0.9-0.9,1.8-1.4,2.7c-0.8,1.4-1.4,2.7-1.9,4.1c-0.5,1.4-1.1,2.6-1.7,3.8
		c-0.6,1.4-1.9,3.6-3.8,6.8c-0.5,0.6-1.1,1.4-1.8,2.5c-0.9,1.4-2.1,2.6-3.6,3.8c-0.6,0.5-1.5,0.8-2.7,0.9c-1.8,0.2-3.4-0.6-4.7-2.3
		c-1.8-2.1-2.8-4.6-2.9-7.5c-0.1-5.4-0.1-10,0-13.8c0.3-2.6,0.9-5.3,1.8-8.1c1.8-4.2,3.9-8.1,6.3-11.8c2.3-3.3,5.2-5.8,8.8-7.5
		c0.9-0.5,2.3-0.8,4.3-0.9c3.2,0,5.9,0.3,8.1,0.9c0.1,0.2,0.3,0.3,0.6,0.5c0.2,0.2,0.5,0.2,0.8,0.2c0.9,0.9,0.9,1.8,0,2.7
		c-1.1,0.9-2.2,1.6-3.4,2c-2.3,0.6-3.5,0.9-3.6,0.9c-2.9,1.1-4.9,2.7-6.1,5c-0.5,0.6-0.9,1.2-1.5,1.7c-0.5,0.5-0.9,1.2-1.2,1.9
		c-1.4,1.5-2.6,3.8-3.8,6.8c-1.7,4.1-2.6,8.1-2.9,12c-0.5,2.3-0.7,3.8-0.7,4.7c-0.2,1.2-0.1,2.8,0.2,4.7c0,0.3,0.1,0.5,0.5,0.7
		c0.1,0.3,0.5,0.2,0.9-0.2c2.1-2.7,3.3-4.3,3.6-4.7c2.6-3.9,4.7-8,6.3-12.2c0.1-0.6,1.1-2.4,2.7-5.4c0.9-1.5,1.6-2.8,2-3.8
		c0.3-0.6,1.1-2,2.3-4.3c0.8-1.1,1.7-1.6,2.9-1.6c2.9-0.1,5.2,0.5,7,2c0.6,0.6,0.9,1.3,0.9,2c0.3,3.9,0.4,6.5,0.2,7.7
		c-0.2,2.1-0.3,4.2-0.3,6.2c-0.1,2-0.2,4-0.3,6c0,1.5,0,3.8,0,6.8c-0.2,0.3-0.2,0.6-0.2,1c0,0.4,0,0.8,0,1.2
		c-0.3,1.1-0.5,2.8-0.5,5.2c0.1,2.7,0.1,5.5,0,8.4c0,1.2,0.5,3.2,1.4,6.1c0,0.2,0.1,0.2,0.5,0.2c0.3,0,0.5,0,0.7,0
		c0.3-0.6,0.6-1.1,0.9-1.6c1.2-2.9,2-4.7,2.3-5.4c1.2-3.9,2.5-8.6,3.8-14c0.3-1.4,0.6-2.7,1-4.1c0.4-1.4,0.8-2.7,1.2-4.1
		c0-0.1,0.1-1.1,0.5-2.9c0.8-4.4,1.4-7.6,1.8-9.7c0-0.5,0.3-1.3,0.9-2.5c0.1-0.8,0.8-1.1,2-1.1c1.2,0,1.9,0.2,2,0.7
		c0,0.5-0.4,1.9-1.2,4.3c-0.8,2.4-1.2,4.1-1.2,5.2c-0.3,1.5-0.6,2.9-0.9,4.3c-0.3,1.4-0.6,2.7-0.9,4.1c-0.3,1.4-0.6,2.8-1,4.2
		c-0.4,1.4-0.7,2.8-1,4c-0.5,2.1-0.6,2.9-0.5,2.3c-0.9,2.3-1.6,4.6-2.1,6.9c-0.5,2.3-1.1,4.6-1.7,6.9c-0.2,0.5-0.2,0.8-0.2,0.9
		c0.1,1.2-0.6,3.4-2.3,6.6c-0.8,1.5-2,2.3-3.6,2.3c-0.8,0-1.5,0-2.3,0c-1.5-0.3-2.8-1.1-3.8-2.3L281,364c-1.2-2.1-1.8-3.7-1.8-4.7
		c-0.6-2.7-1-5.4-1.1-8.1c-0.2-2.7-0.2-5.5-0.2-8.4c0-0.5,0-0.9,0-1.5c0-0.5,0-1,0-1.5H278z"/>
	<path id="XMLID_8_" d="M315.5,330.6c-0.2-0.1-0.2-0.5,0.1-1.1c0.5-2,0.1-3.3-1.1-4.1l-1.4-0.7c-1.5-0.5-3.3-1-5.3-1.7
		c-2-0.7-3.7-1.5-4.9-2.4c-1.1-0.6-1.7-1.4-1.8-2.3c-1.2-2.4-2.3-4.7-3.4-7c-0.6-1.5-0.8-3.9-0.7-7.2c0-3.2,0.6-5.6,1.8-7.2
		c0.2,0,0.3-0.3,0.5-0.9c0.8-2.7,2.9-5.1,6.3-7.2c2-1.1,3.7-0.6,5.2,1.4c0.3,0.3,0.5,0.8,0.7,1.4c0.8,2.1,1,4.4,0.7,6.8
		c-0.2,1.7-0.3,3.3-0.5,4.9c-0.2,1.6-0.4,3.1-0.7,4.6c-0.2,1.2-0.3,2.3-0.6,3.4c-0.2,1.1-0.5,2.1-0.8,3.2c-0.3,0.8-0.5,1.4-0.5,2
		c0,0.8,0.1,1.3,0.2,1.6c1.5,1.5,2.8,2.4,3.8,2.7c1.7,0.5,3.6,1,5.8,1.7c2.2,0.7,4,1.6,5.3,2.8c0.8,0.9,1.1,2,1.1,3.2
		c0.1,5.3,0.1,12.8,0,22.6c0,2.6,0.5,4.6,1.6,6.1c0.5,0.6,0.8,0.7,1.1,0.2c0.8-1.1,1.2-1.7,1.4-1.8c0.9-1.8,1.7-3.6,2.3-5.4
		c0.1-0.1,0.5-1.1,1.1-2.9c0.6-2.7,1.3-5.5,2-8.4c0.8-2.9,1.4-5.7,1.8-8.6c0.1-1.7,0.4-3.4,0.8-5.3c0.4-1.9,0.8-3.7,1.2-5.5
		c0.1-1.1,0.7-1.8,1.6-2.3c1.1-0.6,1.8-0.3,2.3,0.9c0.3,1.7,0.3,3,0,4.1c-0.6,2-1.1,4-1.5,6.2c-0.4,2.2-0.8,4.3-1.2,6.2
		c-0.8,3.2-1.5,6.3-2.1,9.5c-0.7,3.2-1.5,6.3-2.6,9.3c-0.5,1.7-0.7,2.6-0.7,2.9c-0.2,2.7-1.7,4.7-4.5,6.1c-0.5,0.2-0.9,0.2-1.4,0.2
		c-1.8-0.1-2.8-0.3-2.9-0.5c-3.8-1.4-6.3-3.7-7.7-7c-1.2-2.7-2-6.1-2.3-10.2c0-1.7,0-3.4,0-5.2c0-1.8,0-3.6,0-5.4
		C315.8,331.9,315.7,330.7,315.5,330.6z M303.4,305.5c-0.2,2,0.1,3.7,0.9,5.2c0.1,0.2,0.3,0.3,0.5,0.5c0.5,0.5,0.8,0.5,0.9,0
		c0.5-0.8,0.7-1.3,0.7-1.6c0.1-1.2,0.4-2.4,0.7-3.5c0.3-1.1,0.5-2.3,0.5-3.5c0-3,0.1-5.2,0.5-6.6c0-0.1-0.2-0.5-0.7-0.9l-0.7,0.5
		C304.3,299.5,303.2,302.8,303.4,305.5z"/>
	<path id="XMLID_11_" d="M364.6,321.3c0,2.4,0.1,4.2,0.2,5.4c0,0.8,0.3,1.3,0.9,1.6c0.9,0.3,2.3,0.7,4.3,1.1c0.5,0,1.1-0.2,2-0.7
		c2.7-1.7,4.6-3.5,5.7-5.4c0.6-1.2,1.3-2.5,2-3.8c0.3-0.9,0.8-1.7,1.6-2.5c0.6-0.3,1.2-0.3,1.8,0c0.1,0.3,0.3,0.5,0.5,0.6
		c0.1,0.1,0.4,0.2,0.7,0.3c0.9,0.9,1.1,1.8,0.7,2.7c-1.5,3.3-2.9,5.7-4.1,7c-0.5,0.5-0.9,0.9-1.5,1.5c-0.5,0.5-1,1-1.5,1.5
		c-0.8,0.9-1.7,1.5-2.7,1.9c-1.1,0.4-2.1,0.8-3.2,1.2c-0.3,0.3-0.8,0.3-1.6,0c-0.6,0-1.2-0.1-1.8-0.3c-0.6-0.2-1.1-0.4-1.6-0.6
		c-0.3,0-0.7,0-1.1,0c-0.5,0-0.9-0.1-1.4-0.2c-0.5,0-0.8,0.3-1.1,0.9c0,0.3-0.1,0.7-0.2,1.1c-1.1,4.7-2.1,8.1-3.2,10.2
		c-0.3,0.8-0.7,1.7-1.1,2.9c-0.2,0.6-0.4,1.2-0.7,1.8c-0.3,0.6-0.5,1.2-0.7,1.8c-0.6,1.8-0.8,2.5-0.7,2c-0.3,1.7-1.3,2.9-2.9,3.8
		c-3,1.7-6,1.9-8.8,0.7c-0.8-0.3-1.2-0.5-1.4-0.7c-3.3-3-5.3-5.5-5.9-7.5c0-0.3-0.1-0.6-0.2-0.9c-0.1-0.3-0.3-0.6-0.5-0.9
		c-0.3-1.1-0.6-2-0.8-2.9c-0.2-0.9-0.5-1.9-0.8-2.9c-0.6-1.7-0.8-4.3-0.7-7.9c0.2-2,0.5-4.1,1.1-6.6c0.5-1.2,0.9-2.3,1.2-3.4
		c0.4-1.1,0.6-2.3,0.6-3.6c0-0.1,0.2-0.5,0.7-1.1c0,0.2,0.2-0.2,0.7-1.1c0.8-1.2,2-1.8,3.6-1.8h0.9c0.3,0,0.5-0.2,0.5-0.7
		c0-0.3-0.2-0.8-0.5-1.4c-0.5-1.5-0.9-3-1.5-4.5c-0.5-1.5-1-3-1.5-4.5c-0.5-1.1-0.5-2-0.2-2.9l0.7-3.6c0-1.2,0.6-2.9,1.8-5.2
		c0.1-0.5,0.5-0.9,1.1-1.4c3-2.4,6.3-3,9.7-1.8c1.2,0.6,2.6,1.9,4.1,3.8c1.4,2.1,2.3,4.4,2.9,6.8c0.5,1.2,0.9,2.5,1.2,3.8
		c0.4,1.4,0.6,2.8,0.8,4.3c0,0.5,0.1,1.1,0.5,2C364.2,314.1,364.6,317.4,364.6,321.3z M344.7,340.8l0.2,2.3c0.5,4.4,1.6,8,3.4,10.9
		c0.3,0.8,0.8,0.9,1.6,0.5c1.7-0.9,2.9-2.4,3.8-4.5c2.1-4.2,4.1-10,6.1-17.4c0.1-0.3,0.2-0.5,0.2-0.7c0-0.8-0.3-1.3-0.9-1.6
		c0.3,0.2-0.3-0.2-1.8-1.1c-3.5-2.3-6-4.1-7.5-5.4c-0.8-0.6-1.3-0.5-1.6,0.5c-0.3,1.4-0.7,2.8-1.2,4.2c-0.5,1.4-0.9,2.8-1.2,4.2
		c-0.5,1.5-0.7,3-0.8,4.5C345,338.4,344.9,339.7,344.7,340.8z M360.6,321.1c0-2.4-0.2-4.6-0.7-6.6c-0.3-1.1-0.6-2.1-0.8-3.2
		c-0.2-1.1-0.4-2.2-0.6-3.4c-0.6-1.7-1.4-4.2-2.5-7.7c-0.6-1.4-1.1-2.3-1.6-2.9c-0.5-0.6-1.1-1.4-2-2.5c-0.8-0.8-1.4-0.7-2,0.2
		c-1.5,1.8-2.2,3.3-2,4.5c0,0.6,0,1.1,0,1.6c-0.3,1.8,0.1,4.5,1.4,8.1c1.5,4.1,2.8,6.7,3.8,7.9l0.7,1.4c1.1,2.3,2.7,4.2,5,5.9
		l0.7,0.2c0.5,0,0.7-0.1,0.7-0.2C360.6,323.7,360.6,322.6,360.6,321.1z"/>
	<path id="XMLID_15_" d="M412.5,225.2c0,3.2-0.4,6.2-1.1,9c-0.8,1.7-1,2.3-0.7,1.8c-0.6,0.9-1.3,2.9-2,6.1c-0.8,2-1.4,3.9-1.8,5.8
		c-0.5,1.9-1,3.8-1.6,5.8c-0.6,1.7-1,3.5-1.1,5.4c-0.8,3.2-2,6.9-3.8,11.1c0,0.2,0,0.3,0,0.5c-1.7,4.7-3.3,8.5-5,11.5
		c-0.6,2.3-1.9,4.7-3.8,7.5c-0.9,1.5-1.4,3.2-1.4,5c0,1.4,0,2.6-0.1,3.8c-0.1,1.2-0.1,2.4-0.1,3.6c-0.2,0.8-0.2,1.6-0.1,2.5
		c0.1,0.9,0.1,1.7,0.1,2.5c0,1.8,0,3.5,0,5.2c0,1.7,0.1,3.3,0.5,5c0,0.2,0,0.4,0,0.7c0,0.3,0,0.5,0,0.7c-0.3,1.2-0.3,2.4,0,3.6
		c0.1,1.1,0.2,2,0.2,2.7c-0.2,1.2,0,2.4,0.5,3.6c0,0.3,0,0.8,0,1.4c0,0.6,0,1.2,0,1.9s0.1,1.3,0.2,1.9c0.3,2.1,0.6,4.3,0.9,6.7
		c0.3,2.3,0.8,4.6,1.6,6.9c0.3,1.2,0.6,2.3,0.9,3.2c0.8,1.7,1.9,1.8,3.4,0.5c0.5-0.5,1.4-2,2.9-4.5c0.5-1.1,0.9-2.2,1.5-3.4
		c0.5-1.2,1.1-2.3,1.7-3.4c0.6-1.7,1-2.7,1.1-3.2c0.1-0.9,0.8-2.7,1.8-5.4c1.2-3.3,2.2-6.8,2.9-10.4c0.6-3,1.7-7.2,3.2-12.4
		c0.5-2.3,1-4.5,1.6-6.8c0.6-2.3,1-4.6,1.1-7c0-0.5,0.1-0.9,0.2-1.4c0.1-0.8,0.5-1.4,1.1-2c0.8-0.6,1.4-0.8,1.8-0.7
		c1.1,0.3,1.5,1,1.4,2c-0.5,2.9-0.7,4.5-0.7,5c-0.5,1.5-0.8,3.1-1.1,4.6c-0.3,1.6-0.7,3.2-1.1,4.9c0,0.2-0.1,0.3-0.2,0.5
		c-0.2,0.2-0.2,0.3-0.2,0.5c-0.3,2.3-0.8,4.5-1.6,6.7c-0.8,2.2-1.4,4.4-1.8,6.7c-0.9,4.7-2,8.3-3.2,10.9c-0.8,1.4-1.2,2.7-1.4,4.1
		c-0.2,0.5-0.5,1.7-1.1,3.8c-0.5,0.9-0.9,1.8-1.2,2.7c-0.4,0.9-0.7,1.8-1,2.7c-0.5,0.9-0.9,2.3-1.4,4.3c-0.3,2.9-2,5.3-5.2,7.2
		c-0.8,0.3-1.7,0.5-2.7,0.5c-2.9-0.2-5.4-1.4-7.7-3.8c-2.3-2.3-3.7-5.1-4.3-8.6c-0.5-2-0.8-4-1.1-6.1c-0.3-2.1-0.6-4.1-0.9-6.1
		c-0.2-0.5-0.3-0.9-0.3-1.5c-0.1-0.5-0.1-1.1-0.1-1.7c-0.3-1.8-0.5-3.6-0.6-5.4c-0.1-1.8-0.3-3.6-0.6-5.4c-0.2-2.3-0.2-4.6-0.2-6.9
		c0-2.3,0-4.7,0-7.1c0-1.5,0-3.1,0-4.6c0-1.6,0-3.1,0-4.6c0-1.8,0.1-3.2,0.2-4.3c0-1.4,0-2.7,0-4.1c0-1.4,0.1-2.7,0.2-4.1
		c0-2.7,0.1-5.4,0.2-8.1c0.1-2,0.3-4,0.5-6c0.1-2,0.4-4.1,0.7-6.2c0-1.1,0.1-2.5,0.5-4.3c0.5-4.5,1.1-9,2-13.6
		c0.3-2,0.8-4.7,1.4-8.4c0.3-2.4,1.2-5.4,2.7-9c1.4-3.6,2.3-6.9,2.9-9.7c0.3-1.4,1.1-2.9,2.5-4.5c0.9-1.2,2.3-2.5,4.1-3.8
		c1.5-0.9,3.4-1.2,5.7-0.9c0.5,0,0.8,0,0.9,0c3.6,0.8,6,3.1,7,7c0.5,2.1,0.6,4.2,0.5,6.3C412.5,222.4,412.5,223.6,412.5,225.2z
		 M394,246.5c-0.2,2.4-0.5,4.7-1,6.9c-0.5,2.2-0.7,4.4-0.6,6.7c0,0.5-0.1,1.1-0.2,2c-0.3,1.8-0.5,3.6-0.7,5.4
		c-0.2,1.8-0.3,3.7-0.5,5.7c-0.2,1.7-0.3,4.3-0.5,7.9c0,0.2,0.1,0.3,0.2,0.5c0.3-0.1,0.5-0.3,0.5-0.5c0.1-0.1,0.3-0.4,0.3-0.8
		c0.1-0.4,0.2-0.6,0.3-0.8c0.6-0.9,1.6-2.8,2.9-5.7c1.4-3.2,2.8-6.9,4.3-11.3l0.9-3.6c0.3-1.7,0.6-3.2,0.9-4.7
		c0.3-1.5,0.8-3,1.4-4.5c0-0.3,0-0.6,0.1-0.8c0.1-0.2,0.2-0.5,0.3-0.8c0.3-2.3,0.7-4.5,1.2-6.8c0.5-2.3,1.1-4.5,1.7-6.8
		c0.8-3.5,1.1-6,1.1-7.7c0-3.6-0.1-6.3-0.2-8.1c-0.2-0.8-0.5-2-0.9-3.6c-0.2-0.5-0.5-1-1.1-1.6c-0.3-0.3-0.7-0.3-1.1,0
		c-1.1,0.6-1.7,1.7-2,3.2c-0.8,2.4-1.3,4.3-1.6,5.7c-0.2,1.8-0.6,3.7-1.4,5.7c-2,5.4-3.2,10.2-3.8,14.2c-0.2,0.8-0.3,1.5-0.3,2.3
		C394.3,245.2,394.2,245.9,394,246.5z"/>
	<path id="XMLID_3_" d="M133.8,416.5c0.2-6.5,0.7-12.6,1.3-18.2c0.1-2.3,0.3-4.6,0.5-6.8c0.2-2.3,0.5-4.5,0.9-6.7
		c1-4.3,2.1-8.6,3.4-12.7c1.3-4.2,3-8.3,5.3-12.2c2.1-3.9,4.5-7,7.2-9.2c3.4-3.1,7.1-4.3,11.3-3.6c2.4,0.3,4.6,0.8,6.5,1.7
		c2.3,1,4,2.7,4.9,5c2.7,6.7,4,12.3,4.1,16.7c0,1.4,0.1,2.5,0.5,3.4c0.4,1.6,0.2,4.4-0.7,8.2c-0.3,1.4-1,2.3-1.8,2.6
		c-1.3,0.9-2.4,1-3.4,0.5c-1.1-0.7-1.4-1.6-0.9-2.9c0.6-2.5,0.7-4.9,0.4-7.4c-0.3-2.5-0.4-4.9-0.5-7.3c-0.2-3.8-1.3-8.1-3.3-12.9
		c-1.1-2-2.6-2.7-4.7-1.9c-5.3,1.9-8.8,5.2-10.6,9.7c-1.3,3.3-2.5,6.5-3.8,9.6c-1.3,3.1-2.2,6.4-2.8,9.8c-0.3,1.5-0.7,3.2-1.2,4.9
		c-1.1,3.1-1.7,7-1.8,11.7c-0.1,2.6-0.3,5.2-0.6,8c-0.3,2.7-0.6,5.4-0.8,8c-0.1,4.2-0.1,7,0,8.4c0.2,3,0.5,6,0.8,8.9
		c0.3,2.9,0.7,5.8,1,8.6c1.1,7.8,3.8,14.7,8.3,20.9c0.5,0.9,1.5,2.1,3,3.6c2.9,3.6,7.4,5.5,13.6,5.7c1.4,0.2,2.8-0.1,4.2-0.8
		c2.8-1.4,5.4-3,7.9-4.7c2.5-1.7,4.7-3.9,6.6-6.7c3.4-5.3,6-10.5,7.8-15.8c0.8-2.8,1.5-5.3,2-7.4c0.5-2.2,1.1-4.7,1.8-7.6
		c0.9-2,2-2.7,3.4-2c1.3,0.7,1.9,1.7,1.7,2.9c-0.9,4.5-1.8,9-2.8,13.6c-1.1,5.5-3.8,11.6-8.3,18.4c-3.4,5.1-8.6,9.6-15.7,13.5
		c-1.6,0.7-3.6,1.2-6,1.4c-4.4,0.2-8.9-0.3-13.7-1.4c-2.9-0.5-5.9-2.3-9.1-5.4c-4.1-3.8-7.4-8.8-10.1-15.1c-2.4-5.7-3.9-12-4.5-18.9
		c-0.2-3-0.5-6-0.7-9C134.3,422.5,134.1,419.5,133.8,416.5z"/>
	<path id="XMLID_19_" d="M225.2,454.1c-0.1-1.8-0.3-3.5-0.5-5.2c-0.2-1.6-0.3-3.4-0.3-5.2l0-3.4c-0.2-2-0.2-3.4-0.1-4.3
		c0-0.3-0.1-0.4-0.3-0.4c-0.5,0-0.7,0.1-0.7,0.3c-0.5,0.9-1,1.9-1.4,2.8c-0.4,0.9-0.8,1.9-1.1,2.8c-0.6,1.4-1.2,2.8-1.6,4.2
		c-0.4,1.4-0.9,2.7-1.4,4c-0.5,1.4-1.6,3.8-3.3,7.1c-0.4,0.6-0.9,1.5-1.6,2.6c-0.8,1.4-1.9,2.8-3.3,4.1c-0.6,0.5-1.4,0.9-2.6,1.1
		c-1.8,0.3-3.4-0.3-4.9-1.9c-2-2-3.1-4.4-3.5-7.2c-0.6-5.4-0.9-10-1.1-13.7c0.1-2.6,0.5-5.3,1.2-8.3c1.5-4.3,3.3-8.4,5.4-12.2
		c2-3.5,4.7-6.2,8.2-8.1c0.9-0.5,2.3-0.9,4.2-1.2c3.2-0.3,5.9-0.2,8.2,0.3c0.2,0.1,0.4,0.3,0.6,0.4c0.2,0.1,0.5,0.2,0.8,0.2
		c1,0.8,1,1.7,0.2,2.7c-1,1-2.1,1.8-3.2,2.3c-2.2,0.8-3.4,1.2-3.5,1.2c-2.8,1.3-4.7,3.1-5.7,5.4c-0.4,0.6-0.8,1.2-1.3,1.8
		c-0.5,0.6-0.8,1.2-1.1,2c-1.2,1.6-2.3,4-3.3,7.1c-1.3,4.2-2,8.2-2,12.2c-0.3,2.3-0.4,3.9-0.3,4.8c-0.1,1.2,0.1,2.8,0.6,4.7
		c0,0.3,0.2,0.5,0.5,0.6c0.2,0.3,0.5,0.2,0.9-0.3c1.9-2.9,3-4.5,3.2-5c2.2-4.1,4-8.3,5.3-12.7c0.1-0.6,0.9-2.5,2.3-5.6
		c0.8-1.6,1.4-2.9,1.7-4c0.3-0.6,0.9-2.1,1.9-4.5c0.7-1.1,1.6-1.7,2.8-1.8c2.8-0.4,5.2,0.1,7.1,1.5c0.6,0.6,1,1.2,1.1,2
		c0.6,3.9,0.9,6.4,0.8,7.6c0,2.1,0.1,4.2,0.2,6.2c0.1,2,0.1,4,0.1,6c0.1,1.5,0.3,3.8,0.5,6.8c-0.1,0.3-0.2,0.7-0.1,1
		c0,0.4,0.1,0.8,0.1,1.2c-0.2,1.1-0.2,2.8,0,5.2c0.4,2.7,0.6,5.5,0.7,8.3c0.1,1.2,0.7,3.2,1.8,6c0,0.2,0.2,0.2,0.5,0.2
		c0.3,0,0.5,0,0.7-0.1c0.2-0.6,0.5-1.2,0.8-1.7c1-2.9,1.6-4.8,1.8-5.6c0.9-4,1.8-8.8,2.7-14.3c0.2-1.4,0.4-2.8,0.7-4.1
		c0.3-1.4,0.6-2.8,0.9-4.2c0-0.1,0.1-1.1,0.2-3c0.4-4.4,0.7-7.7,1-9.8c0-0.5,0.2-1.3,0.7-2.6c0.1-0.8,0.7-1.2,1.9-1.3
		c1.2-0.1,1.9,0.1,2.1,0.5c0,0.5-0.3,1.9-0.9,4.4c-0.6,2.5-0.9,4.2-0.8,5.3c-0.2,1.5-0.4,3-0.6,4.4c-0.2,1.4-0.4,2.8-0.6,4.1
		c-0.2,1.4-0.4,2.8-0.7,4.3c-0.3,1.5-0.5,2.8-0.7,4c-0.3,2.1-0.4,2.9-0.3,2.3c-0.7,2.3-1.3,4.7-1.6,7c-0.3,2.4-0.7,4.7-1.1,7
		c-0.1,0.5-0.2,0.8-0.2,0.9c0.2,1.2-0.3,3.4-1.7,6.7c-0.6,1.6-1.8,2.4-3.4,2.5c-0.8,0.1-1.5,0.1-2.3,0.2c-1.5-0.2-2.9-0.8-4-1.9
		l-2.5-3c-1.4-2-2.1-3.5-2.2-4.6c-0.8-2.7-1.4-5.3-1.8-8c-0.4-2.7-0.7-5.5-0.9-8.3c0-0.5-0.1-0.9-0.1-1.5c0-0.5-0.1-1-0.1-1.5
		L225.2,454.1z"/>
	<path id="XMLID_21_" d="M261.8,441.9c-0.2-0.1-0.2-0.5,0-1.1c0.3-2-0.2-3.3-1.5-4l-1.4-0.6c-1.5-0.3-3.3-0.8-5.4-1.3
		c-2.1-0.5-3.8-1.2-5-2c-1.1-0.5-1.8-1.2-2-2.1c-1.4-2.3-2.7-4.5-3.9-6.7c-0.7-1.5-1.1-3.8-1.3-7.2c-0.3-3.2,0.2-5.6,1.2-7.4
		c0.2,0,0.3-0.3,0.4-0.9c0.5-2.8,2.4-5.3,5.7-7.7c1.9-1.2,3.6-0.9,5.3,0.9c0.3,0.3,0.6,0.7,0.8,1.3c0.9,2,1.3,4.3,1.2,6.7
		c0,1.7,0,3.3-0.1,4.9c0,1.6-0.1,3.1-0.3,4.7c-0.1,1.2-0.2,2.4-0.3,3.4c-0.1,1.1-0.3,2.1-0.5,3.2c-0.2,0.8-0.3,1.5-0.3,2.1
		c0.1,0.8,0.2,1.3,0.4,1.6c1.6,1.4,3,2.2,4,2.4c1.7,0.3,3.6,0.7,5.9,1.2c2.2,0.5,4.1,1.3,5.5,2.4c0.8,0.8,1.3,1.9,1.4,3.1
		c0.6,5.2,1.2,12.8,1.8,22.5c0.2,2.6,0.9,4.5,2.1,6c0.5,0.6,0.9,0.6,1.1,0.1c0.7-1.1,1.1-1.7,1.2-1.9c0.8-1.9,1.4-3.7,1.8-5.6
		c0.1-0.2,0.4-1.2,0.9-3c0.4-2.8,0.8-5.6,1.4-8.5c0.5-2.9,0.9-5.8,1.1-8.7c0-1.7,0.1-3.4,0.4-5.4c0.2-1.9,0.5-3.8,0.8-5.6
		c0.1-1.1,0.5-1.9,1.4-2.4c1-0.7,1.8-0.4,2.3,0.7c0.4,1.6,0.5,3,0.3,4.1c-0.4,2-0.8,4.1-1,6.3c-0.2,2.2-0.4,4.3-0.7,6.3
		c-0.5,3.2-1,6.4-1.4,9.6c-0.4,3.2-1,6.4-1.9,9.4c-0.3,1.7-0.5,2.7-0.4,3c0.1,2.7-1.3,4.9-4,6.4c-0.4,0.2-0.9,0.3-1.3,0.3
		c-1.8,0-2.8-0.1-3-0.2c-3.9-1-6.6-3.2-8.2-6.4c-1.4-2.6-2.4-5.9-3.1-10c-0.1-1.7-0.3-3.4-0.4-5.2c-0.1-1.8-0.3-3.6-0.4-5.4
		C262.2,443.2,262,442,261.8,441.9z M247.7,417.8c0,2,0.4,3.7,1.3,5.1c0.2,0.1,0.3,0.3,0.5,0.4c0.5,0.4,0.8,0.4,0.9-0.1
		c0.4-0.8,0.6-1.3,0.5-1.6c0.1-1.2,0.2-2.4,0.4-3.5c0.2-1.2,0.3-2.3,0.2-3.5c-0.2-3-0.3-5.2-0.1-6.6c0-0.1-0.3-0.4-0.7-0.8l-0.6,0.5
		C248.2,411.7,247.4,415.1,247.7,417.8z"/>
	<path id="XMLID_24_" d="M299.2,438.9c-0.2-0.1-0.2-0.5,0-1.1c0.3-2-0.2-3.3-1.5-4l-1.4-0.6c-1.5-0.3-3.3-0.8-5.4-1.3
		c-2.1-0.5-3.8-1.2-5-2c-1.1-0.5-1.8-1.2-2-2.1c-1.4-2.3-2.7-4.5-3.9-6.7c-0.7-1.5-1.1-3.8-1.3-7.2c-0.3-3.2,0.2-5.6,1.2-7.4
		c0.2,0,0.3-0.3,0.4-0.9c0.5-2.8,2.4-5.3,5.7-7.7c1.9-1.2,3.6-0.9,5.3,0.9c0.3,0.3,0.6,0.7,0.8,1.3c0.9,2,1.3,4.3,1.2,6.7
		c0,1.7,0,3.3-0.1,4.9c0,1.6-0.1,3.1-0.3,4.7c-0.1,1.2-0.2,2.4-0.3,3.4c-0.1,1.1-0.3,2.1-0.5,3.2c-0.2,0.8-0.3,1.5-0.3,2.1
		c0.1,0.8,0.2,1.3,0.4,1.6c1.6,1.4,3,2.2,4,2.4c1.7,0.3,3.6,0.7,5.9,1.2c2.2,0.5,4.1,1.3,5.5,2.4c0.8,0.8,1.3,1.9,1.4,3.1
		c0.6,5.2,1.2,12.8,1.8,22.5c0.2,2.6,0.9,4.5,2.1,6c0.5,0.6,0.9,0.6,1.1,0.1c0.7-1.1,1.1-1.7,1.2-1.9c0.8-1.9,1.4-3.7,1.8-5.6
		c0.1-0.2,0.4-1.2,0.9-3c0.4-2.8,0.8-5.6,1.4-8.5c0.5-2.9,0.9-5.8,1.1-8.7c0-1.7,0.1-3.4,0.4-5.4c0.2-1.9,0.5-3.8,0.8-5.6
		c0.1-1.1,0.5-1.9,1.4-2.4c1-0.7,1.8-0.4,2.3,0.7c0.4,1.6,0.5,3,0.3,4.1c-0.4,2-0.8,4.1-1,6.3c-0.2,2.2-0.4,4.3-0.7,6.3
		c-0.5,3.2-1,6.4-1.4,9.6c-0.4,3.2-1,6.4-1.9,9.4c-0.3,1.7-0.5,2.7-0.4,3c0.1,2.7-1.3,4.9-4,6.4c-0.4,0.2-0.9,0.3-1.3,0.3
		c-1.8,0-2.8-0.1-3-0.2c-3.9-1.1-6.6-3.2-8.2-6.4c-1.4-2.6-2.4-5.9-3.1-10c-0.1-1.7-0.3-3.4-0.4-5.2c-0.1-1.8-0.3-3.6-0.4-5.4
		C299.6,440.2,299.4,439,299.2,438.9z M285.1,414.8c0,2,0.4,3.7,1.3,5.1c0.2,0.1,0.3,0.3,0.5,0.4c0.5,0.4,0.8,0.4,0.9-0.1
		c0.4-0.8,0.6-1.3,0.5-1.6c0.1-1.2,0.2-2.4,0.4-3.5c0.2-1.2,0.3-2.3,0.2-3.5c-0.2-3-0.3-5.2-0.1-6.6c0-0.1-0.3-0.4-0.7-0.8l-0.6,0.5
		C285.6,408.7,284.8,412.1,285.1,414.8z"/>
	<path id="XMLID_27_" d="M320.9,445.5c0.1-0.9,0.1-1.8,0-2.7c-0.1-0.9,0-1.9,0.2-3c0-0.3-0.1-0.8-0.1-1.6c0-0.3,0-3.3,0.2-8.9
		c2.1-8.2,6.7-12.6,13.9-13.1c1.7,0.2,2.9,1,3.8,2.4c0.8,2.1,1.2,3.7,1.3,4.9c0,3.3-0.6,6.1-1.6,8.3c-0.3,0.5-0.5,0.9-0.6,1.4
		c-0.1,0.5-0.3,0.9-0.6,1.4c-0.8,1.9-1.9,3.3-3.3,4.3c-0.7,0.5-1.9,1.5-3.6,3c-0.4,0.3-0.7,0.7-0.8,1.2c-0.2,3.3,0,6.1,0.4,8.4
		c0.4,3.3,0.8,5.6,1.1,6.8c0.3,1.3,0.6,2.6,0.9,3.9c0.2,2.1,1.4,4.1,3.6,5.8c1.8,1.8,3.8,1.9,5.9,0.2c1.1-1,2.3-2.1,3.4-3.2
		c1.8-2.3,4-5.7,6.7-10.3c0.3-0.5,0.5-1,0.7-1.5c0.2-0.5,0.5-1.1,0.9-1.8c0.1-0.5,0.2-0.8,0.4-1.2c0.9-1.7,1.7-3.6,2.3-5.5
		c0.6-1.9,1.3-3.9,2-5.9c0.6-1.9,1.1-3.8,1.5-5.8c0.4-2,0.8-4,1.2-6c-0.2-0.4,0.1-2,0.8-4.6c0.1-0.9,0.8-1.3,2.2-1.3l0.2,0
		c0.9,0.2,1.3,0.8,1.3,1.7l-0.6,3.9c-0.7,3.2-1.3,6.4-2,9.6c-0.7,3.2-1.5,6.2-2.7,9.2c-0.1,0.5-0.8,1.9-1.9,4.2
		c-0.5,1.4-1.1,2.7-1.7,4c-0.5,1.3-1,2.2-1.4,2.8c-0.7,1-1.5,2.5-2.4,4.5c-1.3,2.2-2.4,3.9-3.2,5c-0.7,0.8-1.1,1.7-1.2,2.6
		c-0.8,1.4-1.9,2.4-3.4,3c-2.2,0.8-3.5,1.3-4,1.5c-0.8,0.1-1.4,0-2-0.1c-0.6-0.1-1.3,0-2,0.2c-0.5,0-1.1-0.1-1.8-0.3
		c-2.2-1-3.9-1.8-4.9-2.3c-0.2-0.1-0.6-0.6-1.2-1.3c-2.3-2.5-4-5.7-5.1-9.6c-0.2-0.9-0.4-1.8-0.6-2.7c-0.1-0.9-0.5-2.8-1-5.6
		C321.7,450.7,321.3,448.7,320.9,445.5z M335.6,424.6c-0.3,0.5-0.5,0.8-0.8,1c-0.3,0.2-0.4,0.4-0.4,0.7c-1.5,3.8-2.6,6-3.3,6.8
		c-0.7,0.5-0.9,1.6-0.4,3.2c0,0.2,0,0.4,0.1,0.7c0.7-0.1,1.1-0.2,1.1-0.5c0.4-0.8,0.8-1.7,1.3-2.6c0.5-0.9,1-2,1.7-3.1
		c0.9-1.6,1.3-3.6,1.1-6c0.2-0.8,0.4-1,0.4-0.7c0-0.3-0.2-0.6-0.5-0.9l-0.2,0C335.5,423.6,335.5,424,335.6,424.6z"/>
	<path id="XMLID_30_" d="M362,448.6c0-1.7-0.1-3.3-0.4-5c-0.3-1.6-0.5-3.4-0.6-5.2c-0.5-2.2-0.7-4.6-0.6-7.2c-0.4-1-0.7-2.6-0.8-4.7
		c-0.3-3.5-0.5-6.9-0.6-10.4c0.1-1.2,0.1-2.4,0.1-3.6c0-1.2-0.1-2.5-0.2-3.8c-0.1-1.5-0.2-3.8-0.3-7c-0.2-2-0.2-3.4-0.1-4.3
		c0.1-2.9-0.1-6.5-0.6-10.8c-0.2-1-0.8-1.6-1.7-1.7c-2.1-0.1-4.6-0.6-7.4-1.5c-2.6-0.7-4.9-1-6.9-0.8c-0.5,0-1.2,0-2.3,0
		c-3.6-0.2-8,0.6-13,2.2c-1.6,0.7-2.7,1.8-3.4,3.2c-0.1,0.5-0.4,1.5-0.9,3.2c-0.1,0.3-0.2,0.9-0.1,1.8c0.1,1.2-0.5,2.1-1.8,2.6
		c-0.9,0.5-1.5,0.2-1.9-1c-0.2-0.9-0.4-1.7-0.4-2.5c-0.4-3.4,0.8-6.3,3.6-8.7c0.9-0.7,2.1-1.5,3.7-2.6c0.9-0.4,1.6-0.7,2.2-0.9
		c1.8-0.3,3.6-0.7,5.4-1.1c1.8-0.4,3.6-0.6,5.4-0.4c1.8,0.2,3.6,0.3,5.2,0.4c1.7,0.1,3.3,0.2,4.8,0.4c-0.5,0,0.5,0.2,3,0.4
		c2,0.4,3.6,0.7,4.8,0.7c1.1,0.2,1.6-0.4,1.7-1.9c-0.1-1-0.1-2.2,0.1-3.3c0.1-1.1,0.2-2.2,0.1-3.3c0-0.6,0.2-1.1,0.8-1.4
		c1.2-0.7,2.1-0.9,2.9-0.7c2.3,0.9,4,1.7,5,2.6c1,0.8,1.5,1.8,1.6,2.8c0.2,2.6,0.4,4.4,0.5,5.6c0.2,0.9,0.8,1.4,1.7,1.7
		c3.8,0.6,7.6,1,11.4,1.2c3.8,0.2,7.6,0.1,11.3-0.3c0.3,0,0.6,0,0.9-0.1l-0.2-7.7c-0.1-1-0.1-2.1,0-3.3c0.1-1.1,0.1-2.2,0-3.3
		c0-0.6,0.3-1.1,1-1.4c1-0.7,2-0.9,3-0.7c2.1,0.7,3.8,1.6,5.1,2.5c0.8,0.8,1.3,1.8,1.4,2.8c0.2,2.6,0.4,4.4,0.7,5.6l0.1,4.5
		c2.8-0.1,6.6-0.8,11.3-2c5.6-1.7,10.3-5,14.3-10c2.4-3.5,4-7,4.6-10.3c0.2-1.4,0.3-2.4,0.2-3c0.1-1.2,0-2.9-0.2-5.2
		c-0.1-1.2-0.5-2.9-1.3-5.1c-0.8-2.2-2.3-3.9-4.5-5.1c-0.5-0.1-0.9-0.3-1.4-0.7c-0.5-0.3-1-0.6-1.4-0.9c-0.6-0.3-0.9-0.7-0.8-1.3
		c0.1-0.9,0.7-1.3,1.9-1.1l0.7,0.4c0.2,0.1,0.4,0.2,0.6,0.3c0.2,0.1,0.4,0.2,0.6,0.3c2.7,1,4.3,1.8,5,2.4c0.7,0.6,1.6,2.3,2.9,5.1
		c2.4,5.7,2.6,11.7,0.5,18.1c-1.2,4.2-2.5,7.4-4,9.6c-2.3,3.1-4.4,5.1-6.3,6.2c-0.6,0.4-1.2,0.8-1.9,1.3c-0.7,0.5-1.3,0.9-1.9,1.3
		c-2.1,1.4-5.1,2.4-9,3c-0.6,0-2.2,0.2-4.9,0.4c-1,0.2-2.7,0.4-4.9,0.6c-0.2,1.5-0.2,2.8-0.1,3.9c0.1,1.5,0.1,2.4,0,2.7
		c-0.3,1.7-0.3,4.2-0.1,7.5c0,0.2,0,0.3,0,0.3c0,0.1,0,0.2,0,0.3c-0.2,1.7-0.2,3.3-0.1,4.8c0.1,1.5,0.2,3,0.4,4.5
		c0.2,2.9,0.2,5.4-0.1,7.5c-0.1,0.9,0,1.9,0.1,2.9c0.2,1,0.3,2,0.3,2.9c0.1,1.2,0.2,2.2,0.2,2.9c0.4,1.5,0.6,3,0.6,4.5
		c0,1.5,0,3.1,0.2,4.8c0.1,4.7,0.2,7.5,0.3,8.5c0.2,1,0.4,1.6,0.6,1.9c0.3,0.3,0.5,1.1,0.9,2.5c0.3,1.4,0.8,5,1.4,10.9
		c0.1,1.7,0.3,3.4,0.7,5.4c0.5,2.2,0.8,4.2,0.9,6c0.1,1.4,0.4,2.7,1,4c0.5,1,0.9,2,1.1,2.9c0,0.6,0.5,1.8,1.4,3.7
		c0.2,0.6,0.8,1.2,1.7,1.9c0.5,0.3,0.9,0.2,1.3-0.1c0.7-0.7,1.1-1.1,1.3-1.2c2-3,3.3-6,4-8.9c0.5-3.4,1.2-6.2,2-8.6
		c0.4-0.8,0.7-2,0.8-3.7c0.3-5.3,1.1-10.6,2.3-15.7c1.2-5.2,2.1-11,2.6-17.6c0.1-0.8,0.1-1.5,0-2.3c-0.1-0.8-0.1-1.6-0.2-2.5
		c0-0.6-0.1-1.3-0.2-2c-0.1-0.8,0-1.5,0-2.3c-0.1-0.9,0.2-1.8,0.7-2.8c0.3-0.5,0.7-0.7,1.3-0.8c0.8,0.1,1.2,0.4,1.4,1
		c0.2,0.3,0.3,0.5,0.3,0.7c0.1,1.5,0.2,3.1,0.4,4.7c0.1,1.7,0.2,3.2,0.2,4.7c0,6-0.7,11.7-2.3,17c-1.5,5.3-2.6,9.9-3.2,13.9
		c-0.2,1.8-0.4,3.7-0.7,5.5c-0.7,2.3-1.2,4.9-1.4,7.6c-0.2,1.8-0.6,3.6-1.4,5.3c-0.4,1.1-0.7,2.2-1.1,3.3c-0.4,1.1-0.7,2.2-1.1,3.5
		c-0.7,1.3-1.5,2.4-2.7,3.4c-0.6,0.5-1.1,0.8-1.5,1c-3.4,0.9-6.4,0.5-8.9-1.1c-1.8-1.1-3-2.4-3.7-4c-0.2-0.1-0.3-0.4-0.5-0.9
		c-2.4-5-3.9-9.4-4.7-13.2c-0.3-1.5-0.5-2.9-0.8-4.2c-0.3-1.3-0.5-2.8-0.8-4.5c-0.4-1.6-0.9-3.6-1.3-5.8c-0.4-2.2-0.7-4.5-0.9-6.7
		c-0.2,2.7-0.4,4.8-0.6,6.2c-0.1,1.2-0.3,3.4-0.6,6.6c0,0.2,0,0.3-0.1,0.3c-0.1,0.1-0.1,0.2-0.1,0.3c0.1,1.5,0,2.9-0.3,4.2
		c-0.3,1.3-0.6,2.7-0.8,4c-0.4,2.3-0.7,4.1-0.7,5.5c-0.1,1.2-0.4,3.1-0.9,5.5c-0.8,3.2-1.2,5.8-1.2,7.6c-0.3,1.8-0.8,3.6-1.4,5.3
		c-0.5,1.1-0.9,2.2-1.2,3.3c-0.3,1.1-0.6,2.2-1,3.5c-0.7,1.3-1.5,2.4-2.7,3.4c-0.7,0.5-1.3,0.9-1.7,1c-3.4,0.9-6.3,0.5-8.7-1.1
		c-1.7-0.9-3.1-2.3-3.9-4c-0.2-0.1-0.3-0.3-0.4-0.4c-0.1-0.1-0.1-0.3-0.1-0.4c-2.4-5-3.8-9.4-4.5-13.3c-0.4-1.5-0.8-2.9-1-4.3
		c-0.3-1.4-0.5-2.9-0.8-4.4c-0.2-1.2-0.4-2.4-0.5-3.6c-0.2-1.2-0.5-2.4-0.6-3.7c-0.2-1.3-0.3-2.4-0.4-3.5l-0.1-1.6
		c-0.5-2.4-0.8-4.8-0.9-7.3C362.6,453.6,362.4,451.1,362,448.6z M394.1,387.9c-0.2,0-0.3,0-0.3,0c-0.1,0-0.2,0-0.3,0
		c-1.7,0-3.3,0-5,0.2c-1.7,0.1-3.3,0.2-5,0.2c-0.9,0.1-3.1-0.1-6.6-0.6c-1.1-0.1-2.1-0.2-3.2-0.3c-1.1-0.1-2.1-0.2-3-0.3
		c-1.1-0.1-1.6,0.4-1.5,1.3c-0.4,2.6-0.6,4.4-0.5,5.3c0.2,1,0.3,1.9,0.2,2.7c-0.4,1.2-0.5,3.7-0.3,7.5l0.1,0.7
		c-0.2,1.7-0.2,3.3-0.1,4.8c0.1,1.5,0.2,3,0.4,4.5c0.1,3.3,0.2,5.8,0.1,7.5c-0.1,0.6,0,2.6,0.2,5.9c0.1,1.2,0.2,2.2,0.5,2.9
		c0.4,1.6,0.7,4.7,0.7,9.2c0,3.3,0.2,6.5,0.8,9.5c0.2,0.9,0.3,1.7,0.2,2.5c0,1.8,0.1,4.5,0.4,8.1c0.1,1.8,0.4,3.1,0.8,4
		c0.9,3.7,1.6,8,2,13c0.2,2,0.4,3.8,0.7,5.6c0.7,2.7,1.1,4.8,1.2,6.3c0.1,1.2,0.4,2.5,1,3.8c0.4,0.7,0.7,1.7,0.9,2.9
		c0,0.6,0.2,1.2,0.6,1.8c0.3,0.6,0.6,1.2,0.8,2c0.2,0.6,0.8,1.2,1.7,1.9c0.5,0.3,0.9,0.2,1.4-0.1c0.8-0.8,1.3-1.2,1.5-1.3
		c2-3,3.3-6,3.8-8.9c0.9-4,1.6-6.9,2.3-8.6c0.3-1.4,0.5-2.6,0.6-3.7c0.2-3.2,0.6-5.9,1.2-8c0.4-1.2,0.6-3.5,0.8-6.6
		c0.2-3.2,0.4-5.5,0.6-6.9c0.1-2,0.2-3.9,0.2-5.7c0.1-0.9,0.2-1.8,0.2-2.7c0.1-0.9,0.2-1.8,0.2-2.7c0.2-1.2,0.3-2.2,0.4-3
		c-0.2-3.8-0.1-7.5,0.2-11.1c0.1-0.9,0-2.5-0.2-4.7c0-1.8,0-3.2-0.1-4.3c0-0.6,0.1-1.1,0.3-1.4c-0.1-1.8-0.3-4.3-0.4-7.5
		c-0.1-1.2-0.1-2.4-0.1-3.6c0.1-1.2,0-2.5-0.1-3.8c-0.1-1-0.1-2.2-0.2-3.4c0-1.2-0.1-2.4-0.2-3.6c-0.1-2.7-0.1-4.1-0.1-4.3
		L394.1,387.9z"/>
	<path id="XMLID_33_" d="M456.5,417c0.2,2.4,0.4,4.2,0.7,5.4c0.1,0.8,0.4,1.3,1,1.5c0.9,0.2,2.4,0.5,4.4,0.8c0.5,0,1.1-0.3,2-0.8
		c2.6-1.9,4.3-3.8,5.2-5.9c0.5-1.2,1.1-2.6,1.7-4c0.2-0.9,0.7-1.8,1.4-2.6c0.6-0.3,1.2-0.4,1.8-0.1c0.2,0.3,0.3,0.5,0.5,0.5
		c0.2,0.1,0.4,0.2,0.7,0.3c1,0.8,1.3,1.7,0.9,2.6c-1.2,3.4-2.4,5.9-3.5,7.3c-0.4,0.5-0.9,1-1.3,1.6c-0.5,0.6-0.9,1.1-1.3,1.6
		c-0.7,1-1.5,1.7-2.5,2.1c-1,0.5-2,1-3.1,1.5c-0.3,0.3-0.8,0.4-1.6,0.1c-0.6,0-1.2,0-1.8-0.2c-0.6-0.2-1.2-0.3-1.6-0.4
		c-0.3,0-0.7,0.1-1.1,0.1c-0.5,0-0.9,0-1.4-0.1c-0.5,0-0.8,0.4-1.1,1c0,0.3,0,0.7-0.1,1.1c-0.7,4.7-1.5,8.2-2.3,10.4
		c-0.2,0.8-0.5,1.8-0.9,3c-0.1,0.6-0.3,1.2-0.5,1.9c-0.3,0.6-0.4,1.2-0.5,1.9c-0.5,1.9-0.6,2.5-0.5,2.1c-0.2,1.7-1,3-2.6,4.1
		c-2.9,1.9-5.8,2.4-8.7,1.4c-0.8-0.2-1.2-0.4-1.4-0.6c-3.5-2.7-5.7-5.1-6.5-7c0-0.3-0.1-0.6-0.3-0.9c-0.2-0.3-0.3-0.6-0.5-0.9
		c-0.4-1-0.7-2-1-2.9c-0.3-0.9-0.6-1.8-1-2.9c-0.7-1.6-1.2-4.2-1.3-7.8c0-2,0.2-4.2,0.6-6.6c0.4-1.2,0.7-2.4,1-3.5
		c0.3-1.1,0.4-2.3,0.3-3.7c0-0.1,0.2-0.5,0.6-1.2c0,0.2,0.2-0.2,0.6-1.2c0.7-1.3,1.8-2,3.5-2.1l0.9-0.1c0.3,0,0.4-0.3,0.4-0.7
		c0-0.3-0.2-0.7-0.6-1.3c-0.6-1.5-1.2-2.9-1.8-4.4c-0.6-1.5-1.3-2.9-1.8-4.4c-0.5-1-0.7-2-0.5-2.9l0.4-3.7c-0.1-1.2,0.4-3,1.4-5.3
		c0.1-0.5,0.5-0.9,1-1.4c2.8-2.6,6-3.5,9.5-2.6c1.2,0.5,2.7,1.7,4.4,3.5c1.5,2,2.7,4.2,3.5,6.5c0.5,1.2,1.1,2.4,1.5,3.7
		c0.5,1.3,0.9,2.7,1.1,4.2c0,0.5,0.2,1.1,0.6,2C455.6,409.8,456.2,413.1,456.5,417z M438.3,437.9l0.4,2.2c0.8,4.3,2.2,7.8,4.2,10.5
		c0.4,0.7,0.9,0.8,1.6,0.3c1.6-1,2.7-2.6,3.5-4.8c1.8-4.4,3.3-10.3,4.7-17.8c0.1-0.3,0.2-0.5,0.2-0.7c-0.1-0.7-0.4-1.2-1-1.5
		c0.3,0.1-0.3-0.2-1.9-1c-3.6-2-6.3-3.6-7.9-4.8c-0.8-0.5-1.3-0.3-1.5,0.6c-0.2,1.4-0.5,2.8-0.9,4.3c-0.4,1.5-0.7,2.9-0.9,4.3
		c-0.3,1.5-0.5,3.1-0.4,4.6C438.3,435.6,438.3,436.9,438.3,437.9z M452.5,417.1c-0.2-2.4-0.6-4.6-1.2-6.5c-0.4-1-0.7-2.1-1-3.1
		c-0.3-1-0.6-2.1-0.8-3.3c-0.7-1.6-1.8-4.1-3.1-7.5c-0.7-1.3-1.3-2.2-1.8-2.8c-0.5-0.6-1.2-1.3-2.2-2.3c-0.8-0.7-1.5-0.6-2,0.4
		c-1.4,1.9-1.9,3.5-1.7,4.7c0,0.6,0.1,1.1,0.1,1.6c-0.2,1.8,0.5,4.5,2,8c1.8,3.9,3.3,6.5,4.5,7.6l0.8,1.3c1.2,2.2,3,4,5.4,5.5
		l0.7,0.2c0.5,0,0.7-0.1,0.7-0.3C452.7,419.7,452.6,418.6,452.5,417.1z"/>
</symbol>
</defs>
</svg>
