<?xml version="1.0" encoding="utf-8"?>
<!-- Generator: Adobe Illustrator 19.0.0, SVG Export Plug-In . SVG Version: 6.00 Build 0)  -->
<svg version="1.1" id="Camada_1" xmlns="http://www.w3.org/2000/svg" xmlns:xlink="http://www.w3.org/1999/xlink" style="enable-background:new 0 0 576.8 185.8;" xml:space="preserve">
<style type="text/css">
	.st0{fill:#333333;}
</style>
<defs>
<symbol id="logo" class="logo" viewBox="0 0 1006.8 185.8" preserveAspectRatio="xMinYMin meet">
<g id="XMLID_19_">
	<path id="XMLID_20_" class="st0" d="M49.7,51c-1.8-3.2-4.1-5.6-6.8-7.1c-2.8-1.5-6-2.2-9.6-2.2c-2.8,0-5.4,0.6-7.8,1.7
		c-2.4,1.2-4.6,2.8-6.4,4.9c-1.8,2.1-3.2,4.7-4.3,7.8c-1,3.1-1.6,6.5-1.6,10.2c0,3.7,0.5,7.1,1.6,10.1c1,3,2.5,5.5,4.3,7.7
		c1.8,2.1,4,3.7,6.4,4.9c2.4,1.1,5,1.7,7.8,1.7c4.1,0,7.7-1,10.7-3c3-2,5.4-4.9,7.2-8.7l9.9,4.9c-1.3,2.7-2.9,5.2-4.7,7.4
		c-1.9,2.2-4,4-6.4,5.6c-2.4,1.5-5,2.7-7.8,3.6c-2.8,0.8-5.8,1.3-9,1.3c-4.6,0-8.9-0.9-12.8-2.6c-3.9-1.7-7.3-4.2-10.1-7.3
		c-2.8-3.1-5.1-6.8-6.6-11.2c-1.6-4.3-2.4-9-2.4-14.2s0.8-9.8,2.5-14.2c1.7-4.3,4-8,6.9-11.1c2.9-3.1,6.3-5.5,10.2-7.3
		c3.9-1.8,8.1-2.6,12.5-2.6c4.2,0,8.1,0.7,11.9,2.2c3.7,1.5,7,3.7,9.8,6.6h6.7v11H49.7z"/>
	<path id="XMLID_22_" class="st0" d="M111.7,93.6c-2.5,2.4-5.3,4.3-8.4,5.8c-3.1,1.5-6.5,2.2-10.4,2.2c-3.2,0-6.2-0.5-8.9-1.5
		c-2.7-1-5.1-2.4-7-4.2c-2-1.8-3.5-3.8-4.6-6.2c-1.1-2.3-1.6-4.8-1.6-7.5c0-2.8,0.4-5.3,1.3-7.5c0.8-2.2,1.9-4.1,3.3-5.7
		c1.4-1.6,3-2.9,4.9-4c1.9-1.1,3.8-2,5.8-2.6c2-0.7,4.1-1.1,6.2-1.4c2.1-0.3,4.1-0.4,6.1-0.4c3.1,0,5.7,0.1,7.8,0.3
		c2.1,0.2,4,0.5,5.7,0.8l0.1-5.4c0-2.3-0.3-4.4-1-6.1c-0.7-1.7-1.6-3.2-2.9-4.3c-1.2-1.1-2.7-2-4.5-2.5c-1.7-0.6-3.7-0.8-5.8-0.8
		c-2,0-3.9,0.1-5.8,0.4c-1.8,0.3-3.6,0.6-5.2,1.1c-1.6,0.4-3.1,1-4.4,1.5c-1.3,0.6-2.5,1.2-3.4,1.8L75,39c1.6-1,3.3-2,5.2-2.9
		c1.9-0.9,3.9-1.6,5.9-2.2c2.1-0.6,4.2-1.1,6.3-1.5c2.2-0.4,4.3-0.5,6.4-0.5c3.8,0,7.3,0.5,10.4,1.4c3.1,0.9,5.7,2.3,7.8,4.3
		c2.1,1.9,3.8,4.4,4.9,7.3c1.2,3,1.7,6.5,1.7,10.7l-0.1,33.2h7.4v11h-19.3V93.6z M95.5,91.6c1.6,0,3.2-0.2,4.7-0.6
		c1.6-0.4,3.1-0.9,4.5-1.6c1.4-0.7,2.7-1.4,3.9-2.3c1.2-0.9,2.2-1.8,3-2.7l0.1-15H97.9c-2.3,0-4.4,0.3-6.3,0.8
		c-1.9,0.5-3.5,1.3-4.9,2.2c-1.4,1-2.5,2.2-3.2,3.7c-0.8,1.5-1.2,3.1-1.2,5c0,1.8,0.3,3.3,1,4.6c0.6,1.3,1.5,2.4,2.7,3.3
		c1.2,0.9,2.6,1.5,4.2,2C91.8,91.4,93.6,91.6,95.5,91.6z"/>
	<path id="XMLID_25_" class="st0" d="M191.4,47.4h-12.2v-4.1c-1.4,0-2.9,0.3-4.3,0.8c-1.5,0.5-2.9,1.3-4.1,2.4
		c-1.3,1.1-2.4,2.5-3.4,4.2c-1,1.7-1.7,3.7-2.1,6v32h11.3v11h-32.9v-11h9.2l0.1-44.4h-9.2v-11h21.2v9.2c0.8-1.4,1.6-2.6,2.6-3.8
		c1-1.2,2-2.2,3.2-3.1c1.2-0.9,2.5-1.6,3.9-2.1c1.4-0.5,3-0.7,4.6-0.7c2.2,0,4.3,0,6.3,0c2,0,3.9,0,5.9,0.1V47.4z"/>
	<path id="XMLID_27_" class="st0" d="M203.5,66.5c0-5.3,0.9-10,2.5-14.4c1.6-4.3,3.9-8,6.9-11.1c2.9-3.1,6.5-5.5,10.5-7.1
		c4.1-1.7,8.5-2.5,13.4-2.5c4.9,0,9.4,0.8,13.5,2.5c4.1,1.7,7.6,4,10.5,7.1c2.9,3.1,5.2,6.7,6.8,11.1c1.6,4.3,2.4,9.1,2.4,14.4
		c0,5.2-0.8,9.9-2.4,14.3c-1.6,4.3-3.9,8.1-6.8,11.2c-2.9,3.1-6.4,5.5-10.5,7.3c-4.1,1.7-8.6,2.6-13.5,2.6c-5,0-9.5-0.9-13.6-2.6
		c-4.1-1.7-7.5-4.1-10.4-7.2c-2.9-3.1-5.2-6.8-6.8-11.1C204.4,76.5,203.5,71.7,203.5,66.5z M216.1,66.5c0,3.8,0.5,7.2,1.6,10.3
		c1.1,3.1,2.6,5.7,4.5,7.9c1.9,2.2,4.1,3.8,6.6,5c2.5,1.2,5.2,1.8,8,1.8c2.9,0,5.7-0.6,8.2-1.7c2.5-1.2,4.8-2.8,6.6-5
		c1.9-2.2,3.4-4.8,4.4-7.9c1.1-3.1,1.6-6.5,1.6-10.4c0-4-0.5-7.6-1.6-10.7c-1.1-3.1-2.5-5.7-4.4-7.8c-1.9-2.1-4.1-3.7-6.6-4.7
		c-2.6-1.1-5.3-1.6-8.3-1.6c-2.8,0-5.5,0.5-8,1.6c-2.5,1.1-4.7,2.6-6.6,4.7c-1.9,2.1-3.4,4.7-4.5,7.8
		C216.7,58.9,216.1,62.5,216.1,66.5z"/>
	<path id="XMLID_30_" class="st0" d="M281.6,0h21.5v88.7h10v11h-31.5v-11h9.6V11h-9.6V0z"/>
	<path id="XMLID_32_" class="st0" d="M50.2,140.3c-1.8-2.3-3.9-4-6.2-5.2c-2.3-1.2-4.9-1.7-8-1.5c-2.5-0.2-4.7,0.2-6.8,1
		c-2,0.9-3.8,2.1-5.3,3.6c-1.5,1.5-2.6,3.4-3.4,5.5c-0.8,2.1-1.2,4.5-1.2,7.1c0,2.4,0.4,4.6,1.3,6.7c0.9,2.1,2,3.9,3.5,5.4
		c1.5,1.5,3.2,2.7,5.3,3.6c2,0.9,4.2,1.4,6.6,1.5c2-0.2,3.8-0.6,5.5-1.3c1.6-0.7,3.1-1.5,4.4-2.6c1.3-1,2.4-2.2,3.3-3.5
		c0.9-1.3,1.6-2.5,2.1-3.7l17.6,4.9c-0.7,2.6-2,5.2-3.7,8c-1.8,2.8-4.1,5.3-6.9,7.6c-2.8,2.3-6.2,4.2-10.1,5.7s-8.4,2.2-13.4,2.2
		c-5.1,0-9.8-0.9-14-2.8c-4.3-1.9-7.9-4.4-11-7.6c-3.1-3.2-5.5-7-7.2-11.3c-1.7-4.3-2.6-9-2.6-13.9c0-4.9,0.9-9.5,2.7-13.7
		c1.8-4.2,4.2-7.9,7.3-11c3.1-3.1,6.8-5.6,11.1-7.3c4.3-1.8,9-2.5,14-2.4c3.6-0.2,7.1,0.2,10.4,1.2c3.4,1,6.6,2.5,9.6,4.4h12.8v19.3
		H50.2z"/>
	<path id="XMLID_56_" class="st0" d="M116.2,180.1c-1.5,0.9-2.9,1.7-4.1,2.4c-1.2,0.7-2.5,1.2-3.7,1.6c-1.2,0.4-2.5,0.7-3.8,0.9
		c-1.3,0.2-2.8,0.3-4.4,0.3c-4,0-7.5-0.5-10.7-1.6c-3.1-1.1-5.8-2.6-7.9-4.5c-2.2-1.9-3.8-4.1-5-6.7c-1.2-2.6-1.7-5.4-1.7-8.4
		c0-3.1,0.6-5.9,1.8-8.5c1.2-2.6,2.9-4.8,5.1-6.7c2.2-1.9,4.9-3.3,8.2-4.4c3.2-1,6.9-1.6,11.1-1.6c3,0,5.8,0.2,8.3,0.5
		c2.5,0.3,4.8,0.7,7,1.2v-2.1c0-1.7-0.3-3.1-1-4.3c-0.6-1.2-1.5-2.2-2.7-3c-1.2-0.8-2.5-1.4-4.2-1.7c-1.6-0.4-3.4-0.5-5.3-0.5
		c-4,0-7.6,0.4-10.6,1.2c-3.1,0.8-6,1.9-8.8,3.4l-6.2-12.4c4.4-3,8.9-5.3,13.7-6.9c4.8-1.6,9.8-2.4,15.2-2.4c4.1,0,8,0.5,11.5,1.4
		c3.5,0.9,6.5,2.4,9.1,4.5c2.5,2.1,4.5,4.8,5.9,8.1c1.4,3.3,2.1,7.4,2.1,12.2v24.2h8.9v17.6h-27.7V180.1z M101.6,170.2
		c3,0,5.8-0.5,8.3-1.5c2.5-1,4.6-2.2,6.3-3.6v-8.5h-15.4c-1,0-1.9,0.1-2.9,0.4c-0.9,0.3-1.8,0.7-2.5,1.3c-0.7,0.6-1.3,1.2-1.8,2.1
		c-0.4,0.8-0.7,1.8-0.7,2.8c0,2,0.7,3.6,2.1,4.9C96.5,169.5,98.7,170.2,101.6,170.2z"/>
	<path id="XMLID_59_" class="st0" d="M216.9,141.5h-18v-6.9c-1.8,0-3.4,0.1-4.8,0.4c-1.5,0.2-2.7,0.6-3.8,1.2
		c-1.1,0.6-2,1.3-2.8,2.3c-0.7,1-1.3,2.2-1.6,3.7v24h13.5v17.6h-43.3v-17.6h9.9v-31.3h-9.8v-17.6h29.5v4.7c1.9-1.5,4-2.6,6.3-3.5
		c2.3-0.8,4.9-1.2,7.7-1.2c2.8,0,5.7,0,8.7,0.1c3,0,5.8,0.1,8.3,0.1V141.5z"/>
	<path id="XMLID_61_" class="st0" d="M287.2,141.5h-18v-6.9c-1.8,0-3.4,0.1-4.8,0.4c-1.5,0.2-2.7,0.6-3.8,1.2
		c-1.1,0.6-2,1.3-2.8,2.3c-0.7,1-1.3,2.2-1.6,3.7v24h13.5v17.6h-43.3v-17.6h9.9v-31.3h-9.8v-17.6h29.5v4.7c1.9-1.5,4-2.6,6.3-3.5
		c2.3-0.8,4.9-1.2,7.7-1.2c2.8,0,5.7,0,8.7,0.1c3,0,5.8,0.1,8.3,0.1V141.5z"/>
	<path id="XMLID_63_" class="st0" d="M314.6,154.7l0.2,2c0.5,1.9,1.3,3.6,2.4,5.1c1.1,1.5,2.5,2.7,4,3.7c1.5,1,3.2,1.7,5.1,2.2
		c1.9,0.5,3.8,0.7,5.7,0.7s3.7-0.1,5.5-0.4c1.7-0.2,3.4-0.6,5-1c1.6-0.4,3.2-0.9,4.7-1.4c1.5-0.5,3.1-1.1,4.7-1.7l7.1,13.1
		c-2.4,1.5-4.7,2.8-6.7,3.8c-2,1-4.1,1.9-6.1,2.6c-2.1,0.7-4.2,1.2-6.5,1.5c-2.3,0.3-5,0.5-8.1,0.5c-5.8,0-10.9-1-15.4-2.9
		c-4.5-1.9-8.3-4.5-11.3-7.7c-3.1-3.2-5.4-7.1-7-11.4c-1.6-4.4-2.4-9-2.4-13.8s0.8-9.4,2.5-13.7c1.7-4.3,4.1-8,7.1-11.2
		c3.1-3.2,6.8-5.7,11-7.5c4.3-1.8,9-2.8,14.2-2.8c5.2,0,9.8,0.9,13.9,2.6c4,1.7,7.4,4.1,10.2,7.2c2.8,3.1,4.9,6.6,6.4,10.8
		c1.5,4.1,2.3,8.6,2.4,13.3c0.1,1.1,0.2,2.1,0.2,3.2c0,1,0,2.1-0.1,3.2H314.6z M329.9,130.5c-2.4,0-4.4,0.3-6.1,0.9
		c-1.7,0.6-3.1,1.4-4.3,2.4c-1.2,1-2.1,2.1-2.8,3.4c-0.7,1.3-1.2,2.6-1.6,4h27.8c-0.3-1.5-0.7-2.8-1.3-4.1c-0.6-1.3-1.3-2.4-2.3-3.4
		c-1-1-2.2-1.8-3.7-2.3C334,130.8,332.1,130.5,329.9,130.5z"/>
	<path id="XMLID_66_" class="st0" d="M397.6,117.3h13.3v16.8h-13.4l-0.1,28.1c0,1.6,0.1,2.9,0.4,3.9c0.3,1,0.6,1.8,1.1,2.4
		c0.5,0.6,1.1,1,1.8,1.2c0.7,0.2,1.5,0.3,2.4,0.3c1.6,0,3.1-0.2,4.3-0.5c1.2-0.3,2.5-0.7,3.7-1.1l2.8,12.4c-2.2,1.4-4.6,2.5-7.3,3.3
		c-2.7,0.8-5.8,1.2-9.5,1.2c-2.6,0-5.1-0.4-7.5-1.3c-2.4-0.9-4.5-2.3-6.2-4.1c-1.8-1.8-3.2-4.1-4.3-6.8c-1.1-2.7-1.6-5.9-1.5-9.5
		l0.2-29.4h-9.5v-16.8h9.6l0.1-15.9l19.9-9.5L397.6,117.3z"/>
	<path id="XMLID_68_" class="st0" d="M448.1,117.3h13.3v16.8H448l-0.1,28.1c0,1.6,0.1,2.9,0.4,3.9c0.3,1,0.6,1.8,1.1,2.4
		c0.5,0.6,1.1,1,1.8,1.2c0.7,0.2,1.5,0.3,2.4,0.3c1.6,0,3.1-0.2,4.3-0.5c1.2-0.3,2.5-0.7,3.7-1.1l2.8,12.4c-2.2,1.4-4.6,2.5-7.3,3.3
		c-2.7,0.8-5.8,1.2-9.5,1.2c-2.6,0-5.1-0.4-7.5-1.3c-2.4-0.9-4.5-2.3-6.2-4.1c-1.8-1.8-3.2-4.1-4.3-6.8c-1.1-2.7-1.6-5.9-1.5-9.5
		l0.2-29.4h-9.5v-16.8h9.6l0.1-15.9l19.9-9.5L448.1,117.3z"/>
	<path id="XMLID_70_" class="st0" d="M473,150.3c0-4.8,0.9-9.4,2.6-13.6c1.8-4.2,4.2-7.9,7.3-11.1c3.1-3.2,6.8-5.7,11.2-7.5
		c4.3-1.8,9.1-2.8,14.2-2.8c5.2,0,9.9,0.9,14.3,2.8c4.3,1.8,8.1,4.3,11.2,7.5c3.1,3.2,5.5,6.9,7.3,11.1c1.7,4.2,2.6,8.8,2.6,13.6
		c0,4.8-0.8,9.4-2.5,13.6c-1.7,4.3-4.1,8-7.2,11.2c-3.1,3.2-6.8,5.7-11.2,7.5c-4.3,1.8-9.2,2.8-14.5,2.8c-5.3,0-10.2-0.9-14.5-2.8
		c-4.3-1.8-8-4.3-11.1-7.5c-3.1-3.2-5.5-6.9-7.1-11.1C473.9,159.7,473,155.1,473,150.3z M492.2,150.3c0,2.5,0.4,4.8,1.3,7
		c0.9,2.1,2,3.9,3.5,5.5c1.5,1.5,3.2,2.7,5.1,3.6c1.9,0.9,4,1.3,6.2,1.3c2.3,0,4.4-0.4,6.3-1.3c1.9-0.8,3.6-2,5.1-3.6
		c1.4-1.5,2.6-3.4,3.4-5.5c0.8-2.1,1.2-4.5,1.2-7c0-2.6-0.4-5-1.2-7.2c-0.8-2.1-1.9-4-3.4-5.4c-1.4-1.5-3.1-2.6-5.1-3.4
		c-1.9-0.8-4-1.2-6.3-1.1c-2.2,0-4.3,0.3-6.2,1.1c-1.9,0.8-3.7,1.9-5.1,3.4c-1.5,1.5-2.6,3.3-3.5,5.4
		C492.6,145.2,492.2,147.6,492.2,150.3z"/>
	<path id="XMLID_73_" class="st0" d="M551.9,173.3c0-1.7,0.3-3.3,0.9-4.8c0.6-1.5,1.5-2.8,2.6-4c1.1-1.2,2.5-2.1,4-2.7
		c1.5-0.7,3.2-1,4.9-1c1.7,0,3.3,0.3,4.8,1c1.5,0.7,2.8,1.6,4,2.7c1.1,1.1,2,2.5,2.7,4c0.6,1.5,1,3.1,1,4.8c0,1.7-0.3,3.3-1,4.9
		c-0.7,1.5-1.5,2.9-2.7,4c-1.1,1.1-2.4,2-3.9,2.7c-1.5,0.7-3.1,1-4.8,1c-1.8,0-3.5-0.3-5-1c-1.5-0.7-2.8-1.5-4-2.7
		c-1.1-1.1-2-2.4-2.6-3.9C552.2,176.7,551.9,175.1,551.9,173.3z"/>
</g>
</symbol>
</defs>
</svg>
