<?xml version="1.0" encoding="utf-8"?>
<!-- Generator: Adobe Illustrator 23.0.6, SVG Export Plug-In . SVG Version: 6.00 Build 0)  -->
<svg version="1.1" id="Camada_1" xmlns="http://www.w3.org/2000/svg" xmlns:xlink="http://www.w3.org/1999/xlink" x="0px" y="0px" style="enable-background:new 0 0 100 100;" xml:space="preserve">
<style type="text/css">
	.st0{fill:#252525;}
	.st1{fill:#F5F1F0;}
</style>
<defs>
<symbol id="logo" class="logo" viewBox="0 0 250 250" preserveAspectRatio="xMinYMin meet">
<g>
	<circle class="st0" cx="50" cy="50" r="50"/>
	<g>
		<g>
			<path class="st1" d="M71.5,33.9c-0.8,0-1.5,0.5-1.8,1.1c-0.1,0.1-0.3,0.2-0.4,0.4L50.8,58.4c-0.1,0-0.1,0.1-0.2,0.1
				c-4.6,4.6-12,4.6-16.6,0s-4.6-12,0-16.6s12-4.6,16.6,0c0.8,0.8,2.1,0.8,2.9,0c0.8-0.8,0.8-2.1,0-2.9c-6.2-6.2-16.3-6.2-22.5,0
				s-6.2,16.3,0,22.5c3.1,3.1,7.2,4.6,11.2,4.6s8.1-1.5,11.2-4.6c0.1-0.1,0.1-0.1,0.1-0.2c0.1-0.1,0.2-0.2,0.3-0.3l15.4-19.3v12.6
				h-7c-1.1,0-2.1,0.9-2.1,2.1c0,1.1,0.9,2.1,2.1,2.1h9.1c1.1,0,2.1-0.9,2.1-2.1c0-0.1,0-0.2,0-0.3c0-0.1,0-0.2,0-0.3V35.9
				C73.5,34.8,72.6,33.9,71.5,33.9z"/>
			<path class="st1" d="M71.5,61.7h-9.1c-1.1,0-2.1,0.9-2.1,2.1s0.9,2.1,2.1,2.1h9.1c1.1,0,2.1-0.9,2.1-2.1S72.6,61.7,71.5,61.7z"/>
		</g>
	</g>
</g>
</symbol>
</defs>
</svg>
