<?xml version="1.0" standalone="no"?>
<!DOCTYPE svg PUBLIC "-//W3C//DTD SVG 20010904//EN"
 "http://www.w3.org/TR/2001/REC-SVG-20010904/DTD/svg10.dtd">
<svg version="1.0" xmlns="http://www.w3.org/2000/svg"
 width="700.000000pt" height="700.000000pt" viewBox="0 0 700.000000 700.000000"
 preserveAspectRatio="xMidYMid meet">
<metadata>
Created by potrace 1.11, written by Peter Selinger 2001-2013
</metadata>
<g transform="translate(0.000000,700.000000) scale(0.100000,-0.100000)"
fill="#000000" stroke="none">
<path d="M720 6498 c-53 -18 -77 -34 -131 -88 -58 -57 -70 -75 -88 -134 -27
-87 -27 -148 1 -233 18 -57 32 -78 87 -134 57 -57 76 -68 139 -88 57 -19 87
-23 138 -18 121 9 239 89 295 200 l19 37 588 0 587 -1 -75 -32 c-135 -60 -262
-130 -390 -215 -204 -136 -250 -182 -250 -247 0 -59 59 -105 132 -105 39 1 48
6 152 83 307 231 758 416 1199 491 l37 7 0 -63 c0 -45 6 -72 20 -95 36 -60 51
-63 342 -63 243 0 265 2 295 20 45 27 63 68 63 140 l0 61 48 -6 c408 -58 864
-246 1190 -492 103 -78 113 -83 152 -83 37 0 110 35 110 53 0 8 -7 36 -15 65
-19 64 -92 132 -250 236 -143 94 -205 128 -350 192 l-120 54 586 0 586 0 29
-57 c54 -106 187 -183 315 -183 133 0 268 88 325 212 25 54 29 75 29 148 0
113 -33 187 -115 264 -174 161 -452 108 -561 -106 l-19 -38 -990 0 -990 0 0
70 c0 83 -17 122 -63 150 -30 18 -52 20 -295 20 -291 0 -306 -3 -342 -63 -15
-24 -20 -50 -20 -104 l0 -73 -979 0 -979 0 -26 54 c-72 148 -254 219 -416 164z
m171 -233 c35 -19 69 -70 69 -105 0 -56 -65 -120 -122 -120 -53 0 -118 66
-118 120 0 54 65 120 118 120 13 0 36 -7 53 -15z m2729 -105 l0 -120 -120 0
-120 0 0 120 0 120 120 0 120 0 0 -120z m2591 105 c35 -19 69 -70 69 -105 0
-56 -65 -120 -122 -120 -33 0 -85 35 -103 69 -53 103 53 209 156 156z"/>
<path d="M1363 5320 c-34 -21 -63 -66 -63 -100 0 -54 65 -120 118 -120 57 0
122 64 122 120 0 56 -65 120 -122 120 -13 0 -37 -9 -55 -20z"/>
<path d="M3455 5331 c-11 -5 -27 -17 -36 -27 -9 -11 -191 -338 -404 -729 -213
-390 -479 -878 -591 -1082 -112 -205 -204 -383 -204 -395 1 -13 95 -273 210
-578 l209 -555 -22 -15 c-85 -59 -104 -79 -137 -145 -32 -64 -35 -77 -35 -160
0 -76 4 -98 26 -146 34 -73 90 -134 156 -171 l53 -30 0 -361 c0 -341 1 -364
20 -394 40 -66 4 -63 800 -63 796 0 760 -3 800 63 19 30 20 52 20 364 l0 333
58 29 c72 37 114 80 149 156 24 51 28 73 28 150 0 82 -3 97 -32 156 -30 61
-82 119 -140 159 l-22 15 204 545 c113 300 212 557 220 572 36 63 50 34 -586
1180 -331 596 -611 1093 -624 1106 -24 26 -87 38 -120 23z m-75 -1254 l0 -674
-57 -29 c-75 -39 -136 -112 -163 -200 -26 -85 -25 -147 2 -231 18 -57 32 -78
87 -134 56 -55 77 -69 134 -87 133 -43 258 -17 357 75 82 76 115 151 115 263
0 71 -4 94 -26 141 -34 73 -90 134 -156 171 l-53 30 0 676 c1 589 3 674 15
652 8 -14 200 -367 428 -785 l414 -760 -156 -5 c-170 -5 -190 -11 -221 -63
-25 -40 -25 -74 0 -114 32 -53 50 -58 232 -63 l166 -5 -188 -505 -188 -505
-632 0 -632 0 -188 505 -188 505 176 5 c120 3 184 9 200 18 30 17 62 70 62
102 0 32 -32 85 -62 102 -15 8 -77 15 -179 18 l-157 5 426 783 c235 430 428
782 429 782 2 0 3 -303 3 -673z m171 -912 c35 -19 69 -70 69 -105 0 -56 -65
-120 -122 -120 -53 0 -118 66 -118 120 0 54 65 120 118 120 13 0 36 -7 53 -15z
m706 -1485 c63 -38 85 -136 41 -177 -48 -44 -37 -43 -795 -43 -704 0 -729 1
-760 20 -36 21 -63 66 -63 103 0 30 33 73 74 98 30 18 63 19 751 19 697 0 721
-1 752 -20z m-157 -710 l0 -250 -590 0 -590 0 0 250 0 250 590 0 590 0 0 -250z"/>
<path d="M5523 5320 c-34 -21 -63 -66 -63 -100 0 -54 65 -120 118 -120 57 0
122 64 122 120 0 56 -65 120 -122 120 -13 0 -37 -9 -55 -20z"/>
<path d="M1103 4940 c-24 -14 -47 -48 -88 -131 -131 -261 -224 -540 -265 -796
l-12 -73 -79 0 c-92 0 -130 -15 -159 -63 -18 -30 -20 -52 -20 -297 0 -380 -20
-360 360 -360 289 0 304 3 340 63 18 30 20 52 20 287 0 235 -2 257 -20 287
-27 45 -68 63 -140 63 l-60 0 6 43 c33 222 117 480 238 726 32 64 56 127 56
145 0 61 -63 126 -122 126 -13 0 -38 -9 -55 -20z m-163 -1360 l0 -120 -110 0
-110 0 0 120 0 120 110 0 110 0 0 -120z"/>
<path d="M5783 4920 c-34 -21 -63 -66 -63 -100 0 -11 22 -64 49 -118 102 -203
184 -438 226 -648 14 -67 25 -124 25 -128 0 -3 -27 -6 -60 -6 -72 0 -113 -19
-140 -63 -18 -30 -20 -52 -20 -297 0 -380 -20 -360 360 -360 289 0 304 3 340
63 18 30 20 52 20 300 0 300 -3 317 -65 343 -20 8 -68 14 -114 14 l-79 0 -12
73 c-41 256 -134 535 -265 796 -73 147 -123 180 -202 131z m477 -1340 l0 -120
-110 0 -110 0 0 120 0 120 110 0 110 0 0 -120z"/>
</g>
</svg>
