<svg width="0" height="0" class="hidden">
  <symbol xmlns="http://www.w3.org/2000/svg" viewBox="0 0 97.75 97.75" id="tumblr">
    <path d="M48.875 0C21.883 0 0 21.882 0 48.875S21.883 97.75 48.875 97.75 97.75 75.868 97.75 48.875 75.867 0 48.875 0zM36.912 64.17l.006-20.496h-7.646V34.1c5.777-1.646 10.762-7.786 12.598-14.292.705-2.834.779-4.757.779-4.757h10.863v17.458h12.705v11.017H53.442v6.378c.002 4.281-.016 8.564.006 12.847 0 11.349 10.9 6.688 11.894 6.472l3.14 10.362c-2.718 2.875-31.57 9.892-31.57-15.415z"
      fill="#333"></path>
  </symbol>
  <symbol xmlns="http://www.w3.org/2000/svg" viewBox="0 0 97.75 97.75" id="instagram">
    <g fill="#333">
      <ellipse cx="48.944" cy="48.719" rx="14.465" ry="14.017"></ellipse>
      <path d="M71.333 49.501c0 11.981-10.024 21.692-22.389 21.692s-22.389-9.711-22.389-21.692c0-2.147.324-4.221.924-6.18h-6.616v30.427a2.87 2.87 0 0 0 2.863 2.863h50.159a2.871 2.871 0 0 0 2.865-2.863V43.321h-6.341c.599 1.959.924 4.033.924 6.18zM65.332 35.11h8.141a3.25 3.25 0 0 0 3.242-3.242v-7.762a3.25 3.25 0 0 0-3.242-3.243h-8.141a3.25 3.25 0 0 0-3.243 3.243v7.762a3.25 3.25 0 0 0 3.243 3.242z"></path>
      <path d="M48.875 0C21.882 0 0 21.882 0 48.875S21.882 97.75 48.875 97.75 97.75 75.868 97.75 48.875 75.868 0 48.875 0zm26.77 84.891H22.106c-5.087 0-9.246-3.765-9.246-9.244V22.105c0-5.481 4.159-9.245 9.246-9.245h53.539c5.086 0 9.246 3.764 9.246 9.245v53.542c0 5.479-4.161 9.244-9.246 9.244z"></path>
    </g>
  </symbol>
  <symbol xmlns="http://www.w3.org/2000/svg" viewBox="0 0 97.75 97.75" id="facebook">
    <path d="M48.875 0C21.882 0 0 21.882 0 48.875S21.882 97.75 48.875 97.75 97.75 75.868 97.75 48.875 75.868 0 48.875 0zm18.646 24.89l-6.76.003c-5.301 0-6.326 2.519-6.326 6.215v8.15h12.641l-.006 12.765H54.436v32.758H41.251V52.023H30.229V39.258h11.022v-9.414c0-10.925 6.675-16.875 16.42-16.875l9.851.015V24.89h-.001z"
      fill="#333"></path>
  </symbol>
  <symbol xmlns="http://www.w3.org/2000/svg" viewBox="0 0 97.75 97.75" id="behance">
    <g fill="#333">
      <path d="M39.337 38.729c0-4.611-3.137-4.611-3.137-4.611H23.294v9.894H35.4c2.092-.001 3.937-.67 3.937-5.283zm-3.136 12.117H23.294v11.85h12.311c1.852-.053 5.27-.633 5.27-5.76 0-6.152-4.674-6.09-4.674-6.09zm33.042-6.835c-6.849 0-7.804 6.835-7.804 6.835h14.565c.001 0 .088-6.835-6.761-6.835z"></path>
      <path d="M48.875 0C21.882 0 0 21.883 0 48.875S21.882 97.75 48.875 97.75 97.75 75.867 97.75 48.875 75.868 0 48.875 0zm10.656 28.848h18.294v5.46H59.531v-5.46zm-9.246 28.638c0 13.533-14.084 13.088-14.084 13.088H13.128V26.236H36.2c7.012 0 12.547 3.871 12.547 11.805 0 7.935-6.766 8.438-6.766 8.438 8.919 0 8.304 11.007 8.304 11.007zm19.045 6.993c7.37 0 7.109-4.77 7.109-4.77h7.803c0 12.659-15.172 11.792-15.172 11.792-18.207 0-17.036-16.95-17.036-16.95s-.014-17.034 17.034-17.034c17.947 0 15.434 19.245 15.434 19.245H61.527c0 8.239 7.803 7.717 7.803 7.717z"></path>
    </g>
  </symbol>
</svg>