<svg aria-hidden="true" style="position: absolute; width: 0; height: 0; overflow: hidden;" version="1.1" xmlns="http://www.w3.org/2000/svg" xmlns:xlink="http://www.w3.org/1999/xlink">
<defs>
<symbol id="facebook" viewBox="0 0 32 32">
<path d="M16 0c-8.822 0-16 7.178-16 16s7.178 16 16 16c8.822 0 16-7.178 16-16s-7.177-16-16-16zM19.979 16.563h-2.603c0 4.159 0 9.278 0 9.278h-3.857c0 0 0-5.070 0-9.278h-1.834v-3.279h1.834v-2.121c0-1.519 0.722-3.893 3.893-3.893l2.858 0.011v3.183c0 0-1.737 0-2.075 0s-0.818 0.169-0.818 0.893v1.927h2.939l-0.337 3.279z"></path>
</symbol>
<symbol id="instagram" viewBox="0 0 32 32">
<path d="M15.999 19.203c1.765 0 3.204-1.437 3.204-3.203 0-0.697-0.228-1.341-0.606-1.867-0.582-0.807-1.528-1.336-2.597-1.336s-2.015 0.528-2.598 1.335c-0.379 0.526-0.605 1.17-0.606 1.867-0.002 1.767 1.436 3.204 3.202 3.204z"></path>
<path d="M22.994 12.082v-3.085l-3.085 0.010 0.010 3.085z"></path>
<path d="M16 0c-8.822 0-16 7.178-16 16s7.178 16 16 16c8.822 0 16-7.178 16-16s-7.177-16-16-16zM25.099 14.133v7.45c0 1.941-1.578 3.518-3.517 3.518h-11.165c-1.94 0-3.517-1.577-3.517-3.518v-11.165c0-1.94 1.577-3.517 3.517-3.517h11.164c1.94 0 3.518 1.577 3.518 3.517v3.715z"></path>
<path d="M20.977 16c0 2.744-2.232 4.977-4.977 4.977s-4.977-2.234-4.977-4.977c0-0.66 0.131-1.291 0.366-1.867h-2.716v7.45c0 0.963 0.782 1.743 1.744 1.743h11.164c0.961 0 1.744-0.78 1.744-1.743v-7.45h-2.718c0.237 0.576 0.37 1.207 0.37 1.867z"></path>
</symbol>
<symbol id="behance" viewBox="0 0 32 32">
<path d="M13.466 13.332c0-1.225-0.833-1.225-0.833-1.225h-3.429v2.628h3.217c0.556 0 1.046-0.177 1.046-1.404z"></path>
<path d="M21.41 14.736c-1.818 0-2.072 1.814-2.072 1.814h3.868c0 0.001 0.024-1.814-1.796-1.814z"></path>
<path d="M12.633 16.55h-3.427v3.149h3.036c0.052 0 0.128 0.003 0.218 0 0.488-0.012 1.415-0.151 1.415-1.53 0-1.634-1.243-1.619-1.243-1.619z"></path>
<path d="M16 0c-8.822 0-16 7.178-16 16s7.178 16 16 16c8.822 0 16-7.178 16-16s-7.177-16-16-16zM18.831 10.708h4.859v1.451h-4.859v-1.451zM16.374 18.316c0 3.594-3.742 3.477-3.742 3.477h-6.128v-11.778h6.128c1.863 0 3.333 1.029 3.333 3.137s-1.797 2.241-1.797 2.241c2.369-0.001 2.205 2.923 2.205 2.923zM25.465 18.122h-6.104c0 2.189 2.073 2.051 2.073 2.051 1.957 0 1.888-1.267 1.888-1.267h2.075c0 3.363-4.031 3.132-4.031 3.132-4.836 0-4.525-4.502-4.525-4.502s-0.005-4.526 4.525-4.526c4.767 0 4.097 5.112 4.098 5.112z"></path>
</symbol>
<symbol id="dribbble" viewBox="0 0 32 32">
<path d="M15.525 13.182c-1.486-2.64-3.074-4.792-3.187-4.946-2.394 1.131-4.18 3.336-4.738 5.994 0.226 0.004 3.803 0.046 7.925-1.049z"></path>
<path d="M13.944 7.665c-0.009 0.004-0.018 0.006-0.027 0.008 0.016-0.003 0.026-0.006 0.026-0.006l0.001-0.002z"></path>
<path d="M21.669 9.558c-1.513-1.332-3.495-2.141-5.669-2.141-0.697 0-1.374 0.085-2.023 0.242 0.129 0.17 1.741 2.312 3.209 5.008 3.239-1.216 4.462-3.075 4.483-3.109z"></path>
<path d="M17.462 17.405c-5.068 1.766-6.72 5.328-6.735 5.359 1.455 1.137 3.284 1.821 5.273 1.821 1.19 0 2.321-0.244 3.351-0.682-0.127-0.75-0.627-3.378-1.834-6.516-0.019 0.005-0.037 0.011-0.055 0.018z"></path>
<path d="M16.594 16.067c0.112-0.037 0.226-0.071 0.337-0.102-0.214-0.489-0.449-0.978-0.696-1.46-4.419 1.323-8.661 1.226-8.811 1.223-0.003 0.090-0.007 0.179-0.007 0.271 0 2.205 0.832 4.216 2.198 5.737l-0.003-0.005c0.001 0.003 2.35-4.166 6.982-5.663z"></path>
<path d="M16 0c-8.822 0-16 7.178-16 16s7.178 16 16 16c8.822 0 16-7.178 16-16s-7.177-16-16-16zM25.846 18.026c-0.131 0.646-0.33 1.281-0.585 1.889-0.253 0.596-0.564 1.17-0.927 1.707-0.36 0.531-0.773 1.032-1.225 1.487-0.454 0.454-0.954 0.866-1.487 1.225-0.538 0.363-1.113 0.675-1.707 0.927-0.606 0.256-1.243 0.454-1.889 0.586-0.661 0.136-1.343 0.203-2.024 0.203s-1.362-0.067-2.024-0.203c-0.646-0.133-1.282-0.331-1.889-0.586-0.596-0.253-1.17-0.563-1.708-0.927-0.532-0.361-1.032-0.771-1.486-1.225-0.455-0.455-0.867-0.954-1.226-1.487-0.363-0.538-0.675-1.114-0.927-1.707-0.256-0.606-0.454-1.243-0.586-1.889-0.135-0.661-0.204-1.343-0.204-2.026 0-0.681 0.068-1.362 0.204-2.023 0.132-0.646 0.33-1.281 0.587-1.89 0.252-0.596 0.563-1.17 0.925-1.706 0.36-0.532 0.772-1.033 1.226-1.487 0.454-0.455 0.954-0.867 1.487-1.227 0.537-0.363 1.112-0.674 1.707-0.927 0.607-0.255 1.244-0.454 1.889-0.585 0.663-0.136 1.343-0.205 2.024-0.205s1.362 0.069 2.025 0.205c0.646 0.131 1.281 0.329 1.889 0.585 0.597 0.253 1.17 0.563 1.707 0.927 0.531 0.36 1.033 0.773 1.487 1.227s0.867 0.954 1.225 1.487c0.363 0.537 0.675 1.111 0.927 1.706 0.255 0.608 0.454 1.244 0.586 1.89 0.136 0.661 0.203 1.342 0.203 2.023 0 0.683-0.068 1.363-0.204 2.026z"></path>
<path d="M19.126 16.989c1.127 3.094 1.584 5.613 1.671 6.132 1.928-1.302 3.297-3.366 3.679-5.757-0.178-0.059-2.579-0.817-5.35-0.374z"></path>
<path d="M17.845 13.945c0.201 0.409 0.392 0.825 0.572 1.245 0.064 0.148 0.124 0.296 0.185 0.443 2.949-0.37 5.854 0.255 5.977 0.282-0.018-2.037-0.748-3.905-1.95-5.366-0.015 0.023-1.392 2.013-4.783 3.396z"></path>
</symbol>
</defs>
</svg>
