<?xml version="1.0" standalone="no"?>
<!DOCTYPE svg PUBLIC "-//W3C//DTD SVG 20010904//EN"
 "http://www.w3.org/TR/2001/REC-SVG-20010904/DTD/svg10.dtd">
<svg version="1.0" xmlns="http://www.w3.org/2000/svg"
 width="260.000000pt" height="260.000000pt" viewBox="0 0 260.000000 260.000000"
 preserveAspectRatio="xMidYMid meet">
<metadata>
Created by potrace 1.11, written by Peter Selinger 2001-2013
</metadata>
<g transform="translate(0.000000,260.000000) scale(0.100000,-0.100000)"
fill="#000000" stroke="none">
<path d="M1045 2570 c-451 -91 -828 -423 -975 -860 -81 -241 -81 -579 0 -820
128 -380 440 -692 820 -820 241 -81 579 -81 820 0 380 128 692 440 820 820 81
241 81 579 0 820 -128 380 -440 692 -820 820 -183 62 -472 79 -665 40z m847
-867 c17 -15 18 -38 18 -301 0 -252 -2 -288 -17 -304 -14 -16 -33 -18 -150
-18 -74 0 -143 5 -154 10 -23 13 -26 62 -3 84 12 12 38 16 115 16 l99 0 0 157
c0 133 -2 155 -14 143 -7 -8 -103 -127 -213 -265 -220 -275 -247 -299 -373
-331 -136 -35 -289 8 -388 109 -202 206 -144 537 116 664 52 26 66 28 172 28
103 0 121 -3 171 -26 72 -34 139 -94 139 -125 0 -23 -33 -54 -57 -54 -7 0 -36
18 -64 39 -132 100 -298 85 -408 -35 -81 -89 -102 -197 -60 -311 61 -163 259
-240 414 -160 64 33 71 40 335 372 122 154 232 290 243 303 24 26 53 28 79 5z
m0 -720 c22 -20 23 -51 1 -75 -14 -16 -33 -18 -150 -18 -74 0 -143 5 -154 10
-23 13 -26 62 -3 84 23 24 279 23 306 -1z"/>
</g>
</svg>
